<mxfile host="app.diagrams.net" modified="2023-11-02T03:55:33.221Z" agent="Mozilla/5.0 (Windows NT 10.0; Win64; x64) AppleWebKit/537.36 (KHTML, like Gecko) Chrome/118.0.0.0 Safari/537.36" etag="4Dug-O8NBLju7DT-rBNv" version="22.0.8" type="github">
  <diagram name="Page-1" id="A31vag-4Nxak7okfL2my">
    <mxGraphModel dx="1493" dy="747" grid="1" gridSize="10" guides="1" tooltips="1" connect="1" arrows="1" fold="1" page="1" pageScale="1" pageWidth="827" pageHeight="1169" math="0" shadow="0">
      <root>
        <mxCell id="0" />
        <mxCell id="1" parent="0" />
        <mxCell id="w6IbIdJKmvbsLGeMkwWE-11" value="" style="edgeStyle=orthogonalEdgeStyle;rounded=0;orthogonalLoop=1;jettySize=auto;html=1;" edge="1" parent="1" source="w6IbIdJKmvbsLGeMkwWE-1" target="w6IbIdJKmvbsLGeMkwWE-9">
          <mxGeometry relative="1" as="geometry">
            <Array as="points">
              <mxPoint x="414" y="100" />
              <mxPoint x="515" y="100" />
            </Array>
          </mxGeometry>
        </mxCell>
        <mxCell id="w6IbIdJKmvbsLGeMkwWE-1" value="&lt;div style=&quot;&quot;&gt;ब्रम्हलाल पौडेल(५५) प्रेमेजुङ्ग, ईलाम&amp;nbsp; &amp;nbsp;&amp;nbsp;&lt;/div&gt;&lt;div style=&quot;&quot;&gt;मुनादेबी भूर्तेल (कांकरभिट्टा, झापा)&amp;nbsp;&lt;/div&gt;" style="rounded=0;whiteSpace=wrap;html=1;align=center;" vertex="1" parent="1">
          <mxGeometry x="306" y="20" width="216" height="60" as="geometry" />
        </mxCell>
        <mxCell id="w6IbIdJKmvbsLGeMkwWE-3" style="rounded=0;orthogonalLoop=1;jettySize=auto;html=1;exitX=0;exitY=0.5;exitDx=0;exitDy=0;sketch=1;curveFitting=1;jiggle=2;shadow=0;elbow=vertical;anchorPointDirection=1;arcSize=0;jumpStyle=line;strokeColor=none;" edge="1" parent="1" target="w6IbIdJKmvbsLGeMkwWE-1">
          <mxGeometry relative="1" as="geometry">
            <mxPoint x="590" y="160" as="sourcePoint" />
          </mxGeometry>
        </mxCell>
        <mxCell id="w6IbIdJKmvbsLGeMkwWE-5" value="&lt;div style=&quot;&quot;&gt;ब्रम्हलाल पौडेल(५५) प्रेमेजुङ्ग, ईलाम&amp;nbsp; &amp;nbsp;&amp;nbsp;&lt;/div&gt;&lt;div style=&quot;&quot;&gt;मुनादेबी भूर्तेल (कांकरभिट्टा, झापा)&amp;nbsp;&lt;/div&gt;" style="rounded=0;whiteSpace=wrap;html=1;align=center;" vertex="1" parent="1">
          <mxGeometry x="10" y="112" width="190" height="60" as="geometry" />
        </mxCell>
        <mxCell id="w6IbIdJKmvbsLGeMkwWE-8" value="&lt;div style=&quot;&quot;&gt;ब्रम्हलाल पौडेल(५५) प्रेमेजुङ्ग, ईलाम&amp;nbsp; &amp;nbsp;&amp;nbsp;&lt;/div&gt;&lt;div style=&quot;&quot;&gt;मुनादेबी भूर्तेल (कांकरभिट्टा, झापा)&amp;nbsp;&lt;/div&gt;" style="rounded=0;whiteSpace=wrap;html=1;align=center;" vertex="1" parent="1">
          <mxGeometry x="210" y="112" width="190" height="60" as="geometry" />
        </mxCell>
        <mxCell id="w6IbIdJKmvbsLGeMkwWE-9" value="&lt;div style=&quot;&quot;&gt;ब्रम्हलाल पौडेल(५५) प्रेमेजुङ्ग, ईलाम&amp;nbsp; &amp;nbsp;&amp;nbsp;&lt;/div&gt;&lt;div style=&quot;&quot;&gt;मुनादेबी भूर्तेल (कांकरभिट्टा, झापा)&amp;nbsp;&lt;/div&gt;" style="rounded=0;whiteSpace=wrap;html=1;align=center;" vertex="1" parent="1">
          <mxGeometry x="420" y="112" width="190" height="60" as="geometry" />
        </mxCell>
        <mxCell id="w6IbIdJKmvbsLGeMkwWE-10" value="&lt;div style=&quot;&quot;&gt;ब्रम्हलाल पौडेल(५५) प्रेमेजुङ्ग, ईलाम&amp;nbsp; &amp;nbsp;&amp;nbsp;&lt;/div&gt;&lt;div style=&quot;&quot;&gt;मुनादेबी भूर्तेल (कांकरभिट्टा, झापा)&amp;nbsp;&lt;/div&gt;" style="rounded=0;whiteSpace=wrap;html=1;align=center;" vertex="1" parent="1">
          <mxGeometry x="630" y="112" width="190" height="60" as="geometry" />
        </mxCell>
        <mxCell id="w6IbIdJKmvbsLGeMkwWE-16" value="" style="endArrow=none;html=1;rounded=0;" edge="1" parent="1">
          <mxGeometry width="50" height="50" relative="1" as="geometry">
            <mxPoint x="110" y="110" as="sourcePoint" />
            <mxPoint x="420" y="100" as="targetPoint" />
            <Array as="points">
              <mxPoint x="110" y="100" />
            </Array>
          </mxGeometry>
        </mxCell>
        <mxCell id="w6IbIdJKmvbsLGeMkwWE-17" value="" style="endArrow=classic;html=1;rounded=0;entryX=0.5;entryY=0;entryDx=0;entryDy=0;" edge="1" parent="1" target="w6IbIdJKmvbsLGeMkwWE-10">
          <mxGeometry width="50" height="50" relative="1" as="geometry">
            <mxPoint x="510" y="100" as="sourcePoint" />
            <mxPoint x="560" y="50" as="targetPoint" />
            <Array as="points">
              <mxPoint x="725" y="100" />
            </Array>
          </mxGeometry>
        </mxCell>
      </root>
    </mxGraphModel>
  </diagram>
</mxfile>
